<?xml version="1.0" standalone="yes"?>
<svg xmlns="http://www.w3.org/2000/svg" width="140" height="140">
<path style="fill:#bc3a3b; stroke:none;" d="M0 0L0 140C6.43338 140 13.6339 140.904 19.9606 139.66C25.7481 138.523 29.8046 136.017 36 136C27.8592 131.672 15.019 134 6 134L6 88C6 82.8023 4.55771 75.0026 10.0586 72.0285C14.388 69.6879 21.4176 72.4758 24.1458 76.2238C25.9735 78.7346 26.3492 82.1544 27.4637 85C29.5283 90.2714 32.5376 95.6821 36.3256 99.9105C40.6722 104.762 46.9008 109.124 53 111.444C57.072 112.993 62.128 113.066 65.9066 115.175C69.9279 117.419 74.0241 124.191 72.9568 128.945C72.1412 132.578 68.2336 133.624 65 133.906C56.728 134.628 48.3113 135 40 135C43.5355 136.484 47.2093 135.508 50.9105 136.275C54.1572 136.947 56.6672 139.261 60.0039 139.786C66.107 140.748 72.83 140 79 140C88.9546 140 99.0612 140.51 109 139.957C112.062 139.786 114.949 138.545 118 138.495C125.239 138.379 132.645 140 140 140L140 0L0 0z"/>
<path style="fill:#f5ebe9; stroke:none;" d="M6 5C4.54842 12.8189 5.99697 20.1434 6 28L6 50C6.00627 53.1456 5.64853 56.944 7.89352 59.4861C11.6289 63.7159 21.7435 62.8961 25.1497 58.7716C28.408 54.8262 29.7429 49.3123 32.544 45.0147C35.4844 40.5032 41.057 36.4587 42.1736 31C43.0644 26.6453 40.3987 22.1592 39.5177 18C38.7569 14.408 39.914 9.42511 36.6821 6.85803C34.0049 4.73152 30.1883 5.11662 27 4.96143C19.7021 4.6062 13.3147 4.07556 6 5M118 4.59413C110.397 4.86887 99.0942 2.96405 92.0147 5.74228C85.2614 8.39247 82.5312 18.9751 86.6034 24.9066C90.4831 30.5578 98.1609 33.9385 102.91 39.0039C110.43 47.0249 112.939 64.5884 126 63.9522C137.363 63.3987 135 49.0646 135 41L135 17C134.999 13.913 135.727 9.23639 133.258 6.85803C130.209 3.92146 121.963 4.45091 118 4.59413M61 49C55.2153 46.9466 48.8605 42.9796 43 46C47.8322 52.7978 52.7024 53.101 60 55.6096C67.8046 58.2924 73.3765 60.793 81.9961 59.412C85.715 58.8162 88.0209 54.6547 91.615 54.412C97.3611 54.0242 102.728 60.7623 108.526 55.9105C112.514 52.574 107.427 43.5664 103.089 42.9205C100.628 42.5542 98.9529 45.5423 96.8858 46.4259C94.4392 47.4717 91.5793 47.1398 89 47C91.5129 44.3493 96.1556 40.2789 95.1829 36.1042C94.4045 32.7637 89.6696 30.66 87 29.0656C75.3121 22.0852 60.8086 23.7806 58.5185 38.9992C57.9562 42.7363 59.7223 45.6446 61 49M57 29C55.0204 29.0179 52.9246 28.8945 50.9954 29.4336C49.5959 29.8247 48.1589 30.453 47.0625 31.4336C39.2184 38.4496 50.2584 42.6795 55.142 34.9853C56.3353 33.1052 56.6596 31.1433 57 29z"/>
<path style="fill:#bc3a3b; stroke:none;" d="M72 30.6528C61.9243 33.7963 61.8814 42.5925 67.7454 49.4198C70.3692 52.4746 72.2321 56.1271 76.9614 54.392C81.0113 52.9062 87.4639 46.4418 87.794 41.9961C88.3702 34.2352 78.8154 28.5264 72 30.6528z"/>
<path style="fill:#f5ebe9; stroke:none;" d="M68 42C69.2604 42.4016 70.6834 43.0509 72.044 43.0671C81.4452 43.1795 78.006 31.931 70.3164 38.3534C69.0695 39.3948 68.6895 40.5985 68 42M37 51C38.6665 54.8232 39.8977 57.7532 40 62C33.0982 62.0571 26.2703 61.7682 26 70C29.8187 70.1745 33.2922 71.1525 37 72C40.0764 66.2306 45.2812 60.1381 47 54C45.2475 52.6697 44.3303 51.7525 43 50L37 51M35 75C33.6074 76.4336 32.7672 77.0449 31 78C31.7433 82.699 33.5996 85.4463 37.0008 88.7099C39.4455 91.0557 41.3704 94.0629 44.1736 96.0054C56.891 104.818 66.2455 82.545 77.9414 81.284C81.4804 80.9024 81.7577 84.3847 82.2847 87.0008C83.0766 90.9319 84.7243 95.9928 89.0401 97.3032C98.3786 100.139 110.574 88.0738 99 82C97.8218 83.3154 96.8935 84.7455 94.9468 84.9645C89.7365 85.5507 89.2837 79.186 95 79C95.572 76.6228 95.8905 74.442 96 72C92.8646 74.048 88.1078 79.0337 84.1435 78.8403C81.864 78.7291 81.0183 76.2543 79.4552 75.0046C76.6168 72.7353 71.4207 72.3391 68.1049 73.7423C64.152 75.4151 63.3963 79.9808 60.6096 82.8326C58.4807 85.0112 55.736 85.5584 53.7616 82.8333C52.7026 81.3717 52.2209 79.1633 53.6474 77.7685C55.4652 75.9911 58.4403 76.7224 60.2971 74.6682C64.632 69.8722 63.5191 60.0375 56.9599 57.7855C50.8718 55.6952 42.9222 61.6417 43.2531 68C43.4086 70.9882 46.0082 73.0475 46.2492 75.8904C46.8204 82.6285 37.0621 75.9359 35 75M100 81C104.094 80.3977 108.021 79.1291 112 78C111.006 74.77 108.593 72.9109 107 70C107.768 70.119 109.225 70.5028 110.102 70.4329C114.325 70.0958 114.09 65.922 111.566 63.3187C109.146 60.8236 105.926 61.0172 103.149 62.7431C101.983 63.4674 101.105 64.7576 100.693 66.044C99.3113 70.358 100.875 76.2884 100 81z"/>
<path style="fill:#bc3a3b; stroke:none;" d="M48 67C48.4155 68.5031 48.7067 70.312 49.5131 71.6759C53.5519 78.5063 61.9017 67.277 52.0401 66.4344C50.7672 66.3257 49.2278 66.7865 48 67z"/>
<path style="fill:#f5ebe9; stroke:none;" d="M84 68L81 74C85.061 73.3467 86.9499 71.4946 84 68M6 134C16.0946 134 25.9602 134.208 36 135C30.9042 136.51 26.0463 137.078 21 139C24.9586 140.661 29.7397 140 34 140L58 140C52.7052 135.173 46.7597 136 40 136C47.2962 133.843 56.3765 134.191 64 133.985C67.2704 133.897 72.0583 133.648 73.2261 129.867C74.589 125.453 71.1373 118.361 67.6713 115.742C64.0616 113.014 58.2056 113.044 54 111.444C48.1738 109.228 42.5275 105.169 38.0934 100.829C33.6562 96.487 30.2791 90.6933 27.8758 85C26.5946 81.9651 26.2272 78.029 24.1458 75.4151C21.1817 71.6926 13.4164 69.5028 9.14815 72.0278C4.35837 74.8612 6 83.3308 6 88L6 134M123 75.5486C112.06 77.8821 111.027 90.6495 104.787 98C101.683 101.657 98.0681 104.848 94 107.381C90.2567 109.712 85.2902 111.572 83.6034 116.015C81.7425 120.918 83.1472 129.98 88.1088 132.566C92.1648 134.681 97.5903 134 102 134C110.953 134 121.236 136.335 129.957 134.011C136.208 132.344 135 124.075 135 119C135.001 107.614 136.974 94.1573 134.656 83.0039C133.526 77.5685 128.418 74.393 123 75.5486M56 97L56 99C59.0276 101.034 62.0678 104.064 66 103.597C69.6634 103.162 76.0749 98.6064 73.2076 94.3218C70.0675 89.6294 59.6902 95.1834 56 97M74 102C76.6577 103.173 78.1236 103.404 81 103C79.6262 98.4677 75.9904 97.0677 74 102M61 111L62 112L61 111M113 139C116.959 140.661 121.737 140 126 140C121.841 138.133 117.412 137.986 113 139z"/>
</svg>
